<?xml version="1.0" encoding="UTF-8" standalone="no"?><!DOCTYPE svg PUBLIC "-//W3C//DTD SVG 1.1//EN" "http://www.w3.org/Graphics/SVG/1.1/DTD/svg11.dtd"><svg width="100%" height="100%" viewBox="0 0 1500 635" version="1.1" xmlns="http://www.w3.org/2000/svg" xmlns:xlink="http://www.w3.org/1999/xlink" xml:space="preserve" xmlns:serif="http://www.serif.com/" style="fill-rule:evenodd;clip-rule:evenodd;stroke-linejoin:round;stroke-miterlimit:2;"><g id="TEXT"><g id="PICANXA"><path d="M405.434,232.009c1.019,2.806 1.379,5.626 1.081,8.459c-0.298,2.833 -1.164,5.524 -2.597,8.072c-1.433,2.549 -3.366,4.836 -5.8,6.86c-2.433,2.025 -5.278,3.628 -8.533,4.809l-26.236,9.523l-5.575,2.216c-1.166,0.423 -3.304,1.199 -6.413,2.327l15.014,41.364l-4.73,1.717l-29.355,-10.965l4.884,-1.772l-15.034,-41.417l38.48,-13.967c3.386,-1.229 6.274,-2.917 8.663,-5.063c2.39,-2.147 4.255,-4.519 5.597,-7.116c1.342,-2.597 2.104,-5.368 2.288,-8.313c0.184,-2.945 -0.237,-5.83 -1.262,-8.655c-1.682,-4.634 -4.677,-8.215 -8.985,-10.744c0.514,0.197 2.141,0.821 4.881,1.873l17.019,6.389c2.483,0.954 3.876,1.439 4.177,1.458l0.319,0.268c3.116,1.683 5.617,3.397 7.503,5.143c1.887,1.745 3.425,4.257 4.614,7.534Zm-66.89,4.518l-29.416,-11.002l37.112,-13.471c5.86,-2.127 11.126,-2.137 15.796,-0.029c4.671,2.108 7.88,5.57 9.629,10.388c0.284,0.784 0.443,1.424 0.476,1.919l-33.597,12.195Z" style="fill:#fff;fill-rule:nonzero;"/><path d="M443.478,179.299l27.623,14.86l19.39,86.216l-4.91,1.104l-27.539,-14.694l4.866,-1.095l-19.43,-86.391Z" style="fill:#fff;fill-rule:nonzero;"/><path d="M565.189,246.419c8.79,-1.165 16.849,-4.144 24.179,-8.937c7.33,-4.792 12.75,-10.817 16.26,-18.074l25.98,17.294c-3.51,7.257 -8.865,13.243 -16.065,17.958c-7.201,4.714 -15.196,7.654 -23.985,8.82c-6.729,0.892 -12.864,0.735 -18.404,-0.47c-5.54,-1.206 -10.782,-3.058 -15.725,-5.556c-4.942,-2.498 -9.727,-5.381 -14.352,-8.648c-4.626,-3.268 -9.389,-6.517 -14.289,-9.749c5.175,3.195 10.922,5.435 17.241,6.719c6.319,1.285 12.706,1.499 19.16,0.643Zm-19.24,-5.271c-8.716,-2.119 -15.999,-6.096 -21.848,-11.93c-5.849,-5.834 -9.295,-12.684 -10.339,-20.551c-0.711,-5.363 -0.17,-10.589 1.622,-15.678c1.793,-5.089 4.496,-9.692 8.108,-13.81c3.613,-4.117 7.999,-7.58 13.159,-10.386c5.159,-2.807 10.829,-4.62 17.009,-5.439c7.553,-1.002 14.858,-0.455 21.914,1.642c7.055,2.096 13.128,5.475 18.218,10.137l5.974,-0.793c-1.288,-1.284 -2.573,-2.539 -3.853,-3.764c-1.28,-1.225 -2.686,-2.342 -4.218,-3.352c5.819,3.837 11.776,7.656 17.87,11.457c6.094,3.8 11.488,8.118 16.181,12.954l-5.768,0.764c-3.231,-2.239 -6.29,-4.229 -9.176,-5.969c-2.886,-1.739 -5.835,-3.168 -8.848,-4.284c-3.013,-1.117 -6.219,-1.844 -9.617,-2.181c-3.399,-0.338 -7.296,-0.215 -11.69,0.367c-6.317,0.838 -12.123,2.639 -17.416,5.402c-5.293,2.764 -9.797,6.212 -13.512,10.343c-3.714,4.131 -6.453,8.769 -8.216,13.915c-1.763,5.145 -2.281,10.46 -1.554,15.942c0.695,5.244 2.695,10.316 6,15.214Z" style="fill:#fff;fill-rule:nonzero;"/><path d="M727.657,167.405l42.033,87.185l-5.4,0.157l-24.277,-19.863l5.608,-0.163l-42.033,-87.184l24.069,19.868Zm-47.899,40.003l46.32,-1.347l9.732,20.105l-31.988,0.93l-12.232,29.764l-5.193,0.151l-24.484,-19.856l5.608,-0.163l12.237,-29.584Zm39.02,-16.47l-4.463,10.955l-32.611,0.948l19.809,-48.027l17.265,36.124Z" style="fill:#fff;fill-rule:nonzero;"/><path d="M893.55,152.987l22.253,22.106l-5.945,88.169l-4.976,-0.336l-22.253,-22.106l4.976,0.335l5.945,-88.168Zm-79.478,1.871l21.889,27.504l-5.096,75.574l-4.976,-0.336l-22.252,-22.106l4.976,0.335l5.459,-80.971Zm69.395,73.546l-0.364,5.398l-68.546,-86.141c7.222,6.15 13.888,12.836 19.996,20.056c6.109,7.22 12.046,14.399 17.813,21.536l31.101,39.151Z" style="fill:#fff;fill-rule:nonzero;"/><path d="M1052.46,198.028l-40.859,37.631l25.434,49.382l-6.138,-1.089l-19.564,-24.164l5.934,1.052l-25.435,-49.382l40.859,-37.631l19.769,24.201Zm-101.487,51.06l37.098,-34.268l14.936,28.839l-32.265,29.63l-6.139,-1.088l-19.564,-24.165l5.934,1.052Zm43.519,-46.683l-5.005,4.424l-23.089,-44.753l19.768,24.201l8.326,16.128Z" style="fill:#fff;fill-rule:nonzero;"/><path d="M1153.17,228.369l10.064,96.263l-5.135,-1.679l-16.127,-26.904l5.332,1.744l-10.064,-96.263l15.93,26.839Zm-58.607,21.442l44.045,14.401l2.357,22.211l-30.417,-9.945l-21.578,23.872l-4.938,-1.614l-16.325,-26.968l5.333,1.743l21.523,-23.7Zm42.291,-2.301l-7.905,8.8l-31.01,-10.139l34.887,-38.495l4.028,39.834Z" style="fill:#fff;fill-rule:nonzero;"/></g><g id="SAUCE"><path d="M616.551,350.461c0,2.239 -0.463,4.303 -1.39,6.192c-0.928,1.89 -2.197,3.534 -3.81,4.933c-1.612,1.4 -3.507,2.502 -5.684,3.307c-2.177,0.804 -4.515,1.207 -7.014,1.207c-4.999,-0 -9.272,-1.54 -12.82,-4.619l-11.972,-10.39c1.612,1.259 3.466,2.221 5.563,2.886c2.096,0.665 4.192,0.997 6.288,0.997c2.5,0 4.838,-0.402 7.015,-1.207c2.177,-0.805 4.071,-1.924 5.684,-3.359c1.612,-1.434 2.902,-3.096 3.87,-4.985c0.967,-1.889 1.451,-3.884 1.451,-5.983c-0,-1.959 -0.403,-3.866 -1.209,-5.72c-0.807,-1.854 -1.976,-3.481 -3.508,-4.881l12.215,10.496c1.693,1.47 3.003,3.184 3.931,5.143c0.927,1.959 1.39,3.954 1.39,5.983Zm-40.997,-35.686c-0,-2.449 0.987,-4.513 2.963,-6.192c1.975,-1.68 4.374,-2.519 7.195,-2.519c2.177,-0 4.153,0.524 5.926,1.574c1.774,1.05 3.024,2.484 3.749,4.303l3.024,0c-0.323,-0.839 -0.706,-1.662 -1.149,-2.466c-0.444,-0.805 -0.988,-1.522 -1.633,-2.152l12.699,11.021l0.604,0.629c1.613,1.4 2.701,3.009 3.266,4.829l-3.145,-0l-6.893,-5.983c-1.21,-0.35 -2.379,-0.525 -3.507,-0.525c-2.258,0 -4.334,0.612 -6.229,1.837c-1.894,1.224 -3.084,2.816 -3.567,4.775c-0.484,-0.07 -0.988,-0.122 -1.512,-0.157c-0.524,-0.035 -1.028,-0.052 -1.512,-0.052c-2.822,-0 -5.24,-0.858 -7.256,-2.572c-2.016,-1.714 -3.023,-3.831 -3.023,-6.35Zm2.056,9.027c1.128,0.909 2.398,1.556 3.809,1.941c1.411,0.385 2.882,0.577 4.414,0.577c2.097,0 4.052,0.35 5.866,1.05c1.814,0.7 3.406,1.644 4.777,2.834c1.37,1.189 2.439,2.571 3.205,4.146c0.766,1.574 1.148,3.271 1.148,5.09c0,1.33 -0.241,2.624 -0.725,3.884l-22.494,-19.522Zm5.321,28.233c-3.145,-0.28 -5.785,-1.452 -7.922,-3.516c-2.136,-2.064 -3.487,-4.391 -4.051,-6.98l11.973,10.496Z" style="fill:#fff;fill-rule:nonzero;"/><path d="M671.457,314.565l22.978,51.43l-3.145,-0l-13.786,-11.966l3.265,0l-22.978,-51.429l13.666,11.965Zm-28.541,22.461l26.969,0l5.321,11.861l-18.625,-0l-7.619,17.108l-3.023,-0l-13.908,-11.966l3.266,0l7.619,-17.003Zm22.978,-8.921l-2.782,6.297l-18.987,0l12.336,-27.604l9.433,21.307Z" style="fill:#fff;fill-rule:nonzero;"/><path d="M772.439,314.565l0,31.068c0,3.079 -0.666,5.86 -1.998,8.344c-1.332,2.484 -3.089,4.618 -5.269,6.402c-2.181,1.785 -4.705,3.167 -7.571,4.146c-2.867,0.98 -5.794,1.47 -8.781,1.47c-2.988,-0 -5.976,-0.508 -8.964,-1.522c-2.988,-1.015 -5.693,-2.642 -8.116,-4.881l-13.203,-11.44c2.095,1.889 4.552,3.341 7.372,4.356c2.819,1.014 5.88,1.521 9.181,1.521c3.223,0 6.264,-0.542 9.124,-1.626c2.859,-1.085 5.356,-2.537 7.491,-4.356c2.135,-1.819 3.826,-3.971 5.075,-6.455c1.248,-2.484 1.872,-5.126 1.872,-7.924l0,-31.068l13.787,11.965Zm-43.295,36.211c-2.114,-0.56 -4.065,-1.4 -5.853,-2.519c-1.789,-1.12 -3.333,-2.414 -4.634,-3.884c-1.301,-1.469 -2.317,-3.131 -3.049,-4.985c-0.732,-1.854 -1.098,-3.761 -1.098,-5.72l0,-31.068l13.787,11.965l0,31.068c0,1.819 0.282,3.533 0.847,5.143Z" style="fill:#fff;fill-rule:nonzero;"/><path d="M818.571,353.61c5.16,-0 10.038,-1.102 14.633,-3.307c4.596,-2.204 8.184,-5.265 10.764,-9.183l13.666,11.965c-2.58,3.918 -6.128,6.962 -10.643,9.131c-4.515,2.169 -9.352,3.254 -14.512,3.254c-3.951,-0 -7.478,-0.56 -10.582,-1.679c-3.104,-1.12 -5.987,-2.589 -8.647,-4.409c-2.661,-1.819 -5.201,-3.848 -7.619,-6.087c-2.419,-2.239 -4.918,-4.478 -7.498,-6.718c2.741,2.24 5.885,3.971 9.433,5.196c3.547,1.224 7.216,1.837 11.005,1.837Zm-10.697,-4.514c-4.867,-1.889 -8.764,-4.74 -11.692,-8.554c-2.929,-3.813 -4.393,-8.029 -4.393,-12.647c0,-3.149 0.712,-6.123 2.135,-8.922c1.424,-2.798 3.335,-5.247 5.734,-7.347c2.4,-2.099 5.195,-3.761 8.387,-4.985c3.191,-1.225 6.601,-1.837 10.229,-1.837c4.435,0 8.607,0.875 12.517,2.624c3.911,1.749 7.156,4.163 9.736,7.242l3.507,0c-0.645,-0.84 -1.29,-1.662 -1.935,-2.466c-0.645,-0.805 -1.371,-1.557 -2.177,-2.257c3.064,2.659 6.208,5.318 9.433,7.977c3.225,2.659 6.007,5.563 8.345,8.711l-3.386,0c-1.694,-1.539 -3.306,-2.921 -4.838,-4.145c-1.532,-1.225 -3.124,-2.275 -4.777,-3.149c-1.653,-0.875 -3.447,-1.54 -5.382,-1.994c-1.935,-0.455 -4.192,-0.683 -6.772,-0.683c-3.709,0 -7.196,0.595 -10.461,1.785c-3.265,1.189 -6.128,2.834 -8.587,4.933c-2.459,2.099 -4.394,4.565 -5.805,7.399c-1.411,2.834 -2.116,5.86 -2.116,9.079c-0,3.079 0.766,6.158 2.298,9.236Z" style="fill:#fff;fill-rule:nonzero;"/><path d="M915.629,302.6l13.786,11.965l0,2.519l-35.071,0l-0,8.712l-13.787,-0l-0,-20.572l35.072,-0l-0,-2.624Zm-0,25.715l-0,-2.519l13.786,11.883l0,2.496l-25.275,-0c-2.661,-0 -5.926,0.035 -9.796,0.105l-0,11.23l-13.787,0l-0,-23.09l35.072,-0.105Zm-0,25.819l-0,-2.519l13.786,11.882l0,2.498l-37.974,-0l-13.787,-11.861l37.975,0Z" style="fill:#fff;fill-rule:nonzero;"/></g><g id="EST.-2020" serif:id="EST. 2020"><path d="M647.731,487.943l0.808,-0l-1.691,2.72l-32.717,-0l-0,-0.515c0.686,0 1.201,-0.171 1.544,-0.514c0.343,-0.344 0.539,-1.152 0.588,-2.427l0,-39.702c-0.049,-1.127 -0.233,-1.862 -0.551,-2.205c-0.319,-0.343 -0.821,-0.515 -1.507,-0.515l-0,-0.515l32.57,0l1.691,2.721l-0.809,-0c-0.343,-0.343 -0.6,-0.638 -0.772,-0.883c-0.171,-0.245 -0.367,-0.441 -0.588,-0.588c-0.221,-0.147 -0.502,-0.269 -0.846,-0.367c-0.343,-0.098 -0.833,-0.172 -1.47,-0.221l-25.512,0l-0,22.498l19.483,-0c1.324,-0 2.169,-0.172 2.537,-0.515c0.367,-0.343 0.551,-0.858 0.551,-1.544l0.515,0l-0,4.853l-0.515,-0c0,-0.687 -0.184,-1.201 -0.551,-1.544c-0.368,-0.343 -1.213,-0.515 -2.537,-0.515l-19.483,0l-0,21.763l25.659,-0c0.588,-0.049 1.054,-0.123 1.397,-0.221c0.343,-0.098 0.625,-0.22 0.845,-0.368c0.221,-0.147 0.417,-0.343 0.589,-0.588c0.171,-0.245 0.429,-0.539 0.772,-0.882l-0,0.074Z" style="fill:#fff;fill-rule:nonzero;"/><path d="M655.745,453.681c-0,1.52 0.404,2.806 1.213,3.86c0.808,1.054 1.874,1.961 3.198,2.72c1.323,0.76 2.818,1.422 4.485,1.986c1.666,0.563 3.382,1.09 5.146,1.58c1.765,0.49 3.48,1.005 5.147,1.544c1.666,0.539 3.161,1.177 4.485,1.912c1.323,0.735 2.389,1.617 3.198,2.647c0.809,1.029 1.213,2.279 1.213,3.749c0,3.088 -1.385,5.551 -4.154,7.389c-2.769,1.838 -6.972,2.757 -12.609,2.757c-2.549,0 -4.73,-0.134 -6.544,-0.404c-1.813,-0.27 -3.308,-0.601 -4.484,-0.993c-1.373,-0.392 -2.525,-0.857 -3.456,-1.397l1.176,-2.058c0.049,0.294 0.147,0.564 0.295,0.809c0.098,0.245 0.269,0.49 0.514,0.735c0.245,0.245 0.588,0.465 1.03,0.662c1.176,0.539 2.634,1.004 4.374,1.396c1.74,0.393 4.056,0.589 6.948,0.589c2.647,-0 4.865,-0.221 6.654,-0.662c1.789,-0.441 3.21,-1.042 4.264,-1.801c1.054,-0.76 1.801,-1.679 2.242,-2.757c0.442,-1.079 0.662,-2.28 0.662,-3.603c0,-1.863 -0.649,-3.321 -1.948,-4.375c-1.299,-1.053 -2.929,-1.911 -4.889,-2.573c-1.961,-0.662 -4.081,-1.25 -6.36,-1.764c-2.279,-0.515 -4.399,-1.189 -6.36,-2.022c-1.96,-0.834 -3.59,-1.912 -4.889,-3.235c-1.299,-1.324 -1.948,-3.137 -1.948,-5.441c-0,-1.862 0.343,-3.419 1.029,-4.669c0.686,-1.249 1.544,-2.291 2.573,-3.124c1.03,-0.834 2.169,-1.471 3.419,-1.912c1.25,-0.441 2.451,-0.772 3.603,-0.992c1.151,-0.221 2.168,-0.344 3.051,-0.368c0.882,-0.025 1.495,-0.037 1.838,-0.037c1.715,0 3.161,0.147 4.338,0.441c1.176,0.294 2.132,0.613 2.867,0.956c0.882,0.392 1.593,0.833 2.132,1.324l-0.735,1.396c-0.539,-0.637 -1.25,-1.225 -2.132,-1.764c-0.735,-0.441 -1.654,-0.846 -2.757,-1.213c-1.103,-0.368 -2.365,-0.552 -3.787,-0.552c-0.98,0 -2.267,0.098 -3.86,0.294c-1.593,0.197 -3.137,0.625 -4.632,1.287c-1.494,0.662 -2.793,1.593 -3.896,2.794c-1.103,1.201 -1.654,2.782 -1.654,4.742l-0,0.147Z" style="fill:#fff;fill-rule:nonzero;"/><path d="M719.782,444.344l0,2.279l-0.441,0c0,-0.539 -0.135,-0.943 -0.404,-1.213c-0.27,-0.27 -0.919,-0.429 -1.948,-0.478l-13.382,0l0,35.217c0,1.128 0.148,1.851 0.442,2.169c0.294,0.319 0.784,0.478 1.47,0.478l0,0.368l-5.808,-0l-0,-0.368c0.637,-0 1.103,-0.147 1.397,-0.441c0.294,-0.294 0.465,-0.956 0.514,-1.985l0,-35.364l-13.381,-0c-1.029,0.049 -1.678,0.208 -1.948,0.477c-0.27,0.27 -0.404,0.674 -0.404,1.214l-0.515,-0l-0,-2.28l34.408,-0.073Z" style="fill:#fff;fill-rule:nonzero;"/><path d="M720.885,486.031c-0.441,-0 -0.821,-0.159 -1.139,-0.478c-0.319,-0.319 -0.478,-0.723 -0.478,-1.213c-0,-0.441 0.159,-0.821 0.478,-1.14c0.318,-0.318 0.698,-0.478 1.139,-0.478c0.49,0 0.895,0.16 1.213,0.478c0.319,0.319 0.478,0.699 0.478,1.14c0,0.49 -0.159,0.894 -0.478,1.213c-0.318,0.319 -0.723,0.478 -1.213,0.478Z" style="fill:#fff;fill-rule:nonzero;"/><path d="M771.91,486.252l-0,4.264l-22.866,-0c0.049,-0.049 0.564,-0.723 1.544,-2.022c0.98,-1.299 2.218,-2.99 3.713,-5.073c1.495,-2.083 3.1,-4.448 4.816,-7.095c1.715,-2.647 3.296,-5.318 4.742,-8.014c1.446,-2.696 2.659,-5.306 3.639,-7.83c0.981,-2.524 1.471,-4.718 1.471,-6.58c-0,-0.932 -0.172,-1.924 -0.515,-2.978c-0.343,-1.054 -0.796,-2.022 -1.36,-2.904c-0.564,-0.882 -1.225,-1.617 -1.985,-2.206c-0.76,-0.588 -1.581,-0.882 -2.463,-0.882c-1.912,0 -3.492,0.417 -4.742,1.25c-1.25,0.833 -2.218,1.691 -2.904,2.573c-0.099,0.098 -0.197,0.245 -0.295,0.441c-0.049,0.098 -0.171,0.294 -0.367,0.589c-0.245,0.49 -0.356,1.017 -0.331,1.58c0.024,0.564 0.184,1.066 0.478,1.507l-0.441,0.295l-1.25,-1.912c-0,-0 0.184,-0.368 0.551,-1.103c0.368,-0.735 0.944,-1.544 1.728,-2.426c0.784,-0.882 1.801,-1.679 3.051,-2.39c1.25,-0.71 2.782,-1.066 4.595,-1.066c2.794,0 4.902,0.881 6.323,2.643c1.422,1.761 2.132,4.085 2.132,6.973c0,1.614 -0.367,3.425 -1.102,5.431c-0.736,2.007 -1.691,4.111 -2.868,6.313c-1.176,2.202 -2.487,4.416 -3.933,6.642c-1.446,2.226 -2.892,4.343 -4.338,6.349c-1.446,2.007 -2.831,3.842 -4.154,5.505c-1.323,1.664 -2.402,3.034 -3.235,4.111l16.69,-0c1.372,-0 2.23,-0.172 2.573,-0.515c0.343,-0.343 0.514,-0.858 0.514,-1.544l0.589,0.074Z" style="fill:#fff;fill-rule:nonzero;"/><path d="M796.613,443.535c2.598,0 5.049,0.625 7.352,1.875c2.304,1.25 4.314,2.941 6.029,5.073c1.716,2.132 3.064,4.632 4.044,7.499c0.98,2.868 1.47,5.943 1.47,9.227c0,3.284 -0.49,6.372 -1.47,9.264c-0.98,2.892 -2.328,5.404 -4.044,7.536c-1.715,2.132 -3.725,3.823 -6.029,5.073c-2.303,1.25 -4.754,1.875 -7.352,1.875c-2.598,-0 -5.048,-0.625 -7.352,-1.875c-2.304,-1.25 -4.313,-2.941 -6.029,-5.073c-1.715,-2.132 -3.063,-4.644 -4.044,-7.536c-0.98,-2.892 -1.47,-5.98 -1.47,-9.264c-0,-3.284 0.49,-6.359 1.47,-9.227c0.981,-2.867 2.329,-5.367 4.044,-7.499c1.716,-2.132 3.725,-3.823 6.029,-5.073c2.304,-1.25 4.754,-1.875 7.352,-1.875Zm-7.058,43.158c2.304,1.323 4.656,2.058 7.058,2.205c2.402,0.147 4.669,-0.22 6.801,-1.102c2.132,-0.883 4.068,-2.243 5.808,-4.081c1.74,-1.838 3.1,-4.105 4.081,-6.801c0.98,-2.696 1.458,-5.477 1.433,-8.345c-0.024,-2.867 -0.478,-5.612 -1.36,-8.234c-0.882,-2.622 -2.144,-5.024 -3.786,-7.205c-1.642,-2.181 -3.615,-3.934 -5.919,-5.257c-2.303,-1.323 -4.656,-2.059 -7.058,-2.206c-2.402,-0.147 -4.669,0.221 -6.801,1.103c-2.132,0.882 -4.068,2.243 -5.808,4.081c-1.74,1.838 -3.1,4.105 -4.08,6.8c-0.981,2.696 -1.459,5.478 -1.434,8.345c0.024,2.868 0.478,5.612 1.36,8.235c0.882,2.622 2.144,5.024 3.786,7.205c1.642,2.181 3.615,3.933 5.919,5.257Z" style="fill:#fff;fill-rule:nonzero;"/><path d="M842.27,486.252l0,4.264l-22.865,-0c0.049,-0.049 0.564,-0.723 1.544,-2.022c0.98,-1.299 2.218,-2.99 3.713,-5.073c1.495,-2.083 3.1,-4.448 4.815,-7.095c1.716,-2.647 3.297,-5.318 4.743,-8.014c1.446,-2.696 2.659,-5.306 3.639,-7.83c0.98,-2.524 1.47,-4.718 1.47,-6.58c0,-0.932 -0.171,-1.924 -0.514,-2.978c-0.343,-1.054 -0.797,-2.022 -1.36,-2.904c-0.564,-0.882 -1.226,-1.617 -1.985,-2.206c-0.76,-0.588 -1.581,-0.882 -2.463,-0.882c-1.912,0 -3.493,0.417 -4.743,1.25c-1.25,0.833 -2.218,1.691 -2.904,2.573c-0.098,0.098 -0.196,0.245 -0.294,0.441c-0.049,0.098 -0.171,0.294 -0.367,0.589c-0.246,0.49 -0.356,1.017 -0.331,1.58c0.024,0.564 0.184,1.066 0.478,1.507l-0.442,0.295l-1.249,-1.912c-0,-0 0.183,-0.368 0.551,-1.103c0.368,-0.735 0.944,-1.544 1.728,-2.426c0.784,-0.882 1.801,-1.679 3.051,-2.39c1.25,-0.71 2.782,-1.066 4.595,-1.066c2.794,0 4.902,0.881 6.323,2.643c1.421,1.761 2.132,4.085 2.132,6.973c0,1.614 -0.367,3.425 -1.103,5.431c-0.735,2.007 -1.691,4.111 -2.867,6.313c-1.176,2.202 -2.488,4.416 -3.934,6.642c-1.445,2.226 -2.891,4.343 -4.337,6.349c-1.446,2.007 -2.831,3.842 -4.154,5.505c-1.324,1.664 -2.402,3.034 -3.235,4.111l16.689,-0c1.373,-0 2.23,-0.172 2.574,-0.515c0.343,-0.343 0.514,-0.858 0.514,-1.544l0.588,0.074Z" style="fill:#fff;fill-rule:nonzero;"/><path d="M866.974,443.535c2.598,0 5.048,0.625 7.352,1.875c2.304,1.25 4.313,2.941 6.029,5.073c1.715,2.132 3.063,4.632 4.044,7.499c0.98,2.868 1.47,5.943 1.47,9.227c0,3.284 -0.49,6.372 -1.47,9.264c-0.981,2.892 -2.329,5.404 -4.044,7.536c-1.716,2.132 -3.725,3.823 -6.029,5.073c-2.304,1.25 -4.754,1.875 -7.352,1.875c-2.598,-0 -5.049,-0.625 -7.352,-1.875c-2.304,-1.25 -4.314,-2.941 -6.029,-5.073c-1.716,-2.132 -3.064,-4.644 -4.044,-7.536c-0.98,-2.892 -1.47,-5.98 -1.47,-9.264c-0,-3.284 0.49,-6.359 1.47,-9.227c0.98,-2.867 2.328,-5.367 4.044,-7.499c1.715,-2.132 3.725,-3.823 6.029,-5.073c2.303,-1.25 4.754,-1.875 7.352,-1.875Zm-7.058,43.158c2.303,1.323 4.656,2.058 7.058,2.205c2.402,0.147 4.668,-0.22 6.801,-1.102c2.132,-0.883 4.068,-2.243 5.808,-4.081c1.74,-1.838 3.1,-4.105 4.08,-6.801c0.981,-2.696 1.459,-5.477 1.434,-8.345c-0.024,-2.867 -0.478,-5.612 -1.36,-8.234c-0.882,-2.622 -2.145,-5.024 -3.787,-7.205c-1.642,-2.181 -3.614,-3.934 -5.918,-5.257c-2.304,-1.323 -4.656,-2.059 -7.058,-2.206c-2.402,-0.147 -4.669,0.221 -6.801,1.103c-2.132,0.882 -4.068,2.243 -5.808,4.081c-1.74,1.838 -3.1,4.105 -4.081,6.8c-0.98,2.696 -1.458,5.478 -1.433,8.345c0.024,2.868 0.477,5.612 1.36,8.235c0.882,2.622 2.144,5.024 3.786,7.205c1.642,2.181 3.615,3.933 5.919,5.257Z" style="fill:#fff;fill-rule:nonzero;"/></g></g></svg>