<?xml version="1.0" encoding="UTF-8" standalone="no"?><!DOCTYPE svg PUBLIC "-//W3C//DTD SVG 1.1//EN" "http://www.w3.org/Graphics/SVG/1.1/DTD/svg11.dtd"><svg width="100%" height="100%" viewBox="0 0 1500 635" version="1.1" xmlns="http://www.w3.org/2000/svg" xmlns:xlink="http://www.w3.org/1999/xlink" xml:space="preserve" xmlns:serif="http://www.serif.com/" style="fill-rule:evenodd;clip-rule:evenodd;stroke-linejoin:round;stroke-miterlimit:2;"><text x="610.528px" y="490.589px" style="font-family:'Mirande';font-size:73.522px;">Es<tspan x="684.418px 717.944px 723.973px 746.471px 773.527px 816.832px 843.888px " y="490.589px 490.589px 490.589px 490.589px 490.589px 490.589px 490.589px ">t. 2020</tspan></text><g id="FONT"><g transform="matrix(0.889183,-1.2326e-32,7.39557e-32,0.889183,-69.4395,-33.0995)"><g transform="matrix(1.0831,-0.393139,0.341196,0.939992,-178.781,199.514)"><text x="444.015px" y="415.844px" style="font-family:'Demode-Regular', 'Demode';font-size:202.821px;fill:#231f20;">p</text></g><g transform="matrix(1.12416,-0.252825,0.219421,0.97563,-153.269,155.624)"><text x="579.837px" y="370.411px" style="font-family:'Demode-Regular', 'Demode';font-size:202.821px;fill:#231f20;">i</text></g><g transform="matrix(1.14224,-0.151469,0.131456,0.991322,-139.008,101.622)"><text x="650.663px" y="353.406px" style="font-family:'Demode-Regular', 'Demode';font-size:202.821px;fill:#231f20;">c</text></g><g transform="matrix(1.15175,-0.0334807,0.0290571,0.999578,-132.63,27.2619)"><text x="810.045px" y="333.922px" style="font-family:'Demode-Regular', 'Demode';font-size:202.821px;fill:#231f20;">a</text></g><g transform="matrix(1.14963,0.0775124,-0.0672711,0.997735,-121.506,-73.7056)"><text x="960.541px" y="330.307px" style="font-family:'Demode-Regular', 'Demode';font-size:202.821px;fill:#231f20;">n</text></g><g transform="matrix(1.13455,0.201119,-0.174546,0.984649,-90.9597,-220.025)"><text x="1120.13px" y="342.357px" style="font-family:'Demode-Regular', 'Demode';font-size:202.821px;fill:#231f20;">x</text></g><g transform="matrix(1.09519,0.358088,-0.310775,0.950484,-5.63512,-431.951)"><text x="1257px" y="366.868px" style="font-family:'Demode-Regular', 'Demode';font-size:202.821px;fill:#231f20;">a</text></g></g><text x="562.613px" y="369.353px" style="font-family:'Demode-Regular', 'Demode';font-size:104.958px;fill:#231f20;">s<tspan x="625.138px 702.9px 783.565px 866.77px " y="369.353px 369.353px 369.353px 369.353px ">auce</tspan></text></g></svg>